<?xml version="1.0" encoding="UTF-8" standalone="no"?>
<svg
   xmlns:dc="http://purl.org/dc/elements/1.1/"
   xmlns:cc="http://creativecommons.org/ns#"
   xmlns:rdf="http://www.w3.org/1999/02/22-rdf-syntax-ns#"
   xmlns:svg="http://www.w3.org/2000/svg"
   xmlns="http://www.w3.org/2000/svg"
   xmlns:sodipodi="http://sodipodi.sourceforge.net/DTD/sodipodi-0.dtd"
   xmlns:inkscape="http://www.inkscape.org/namespaces/inkscape"
   version="1.1"
   id="svg2"
   xml:space="preserve"
   width="183.30667"
   height="86.933334"
   viewBox="0 0 183.30667 86.933334"
   sodipodi:docname="LMU_Logo.eps"><metadata
     id="metadata8"><rdf:RDF><cc:Work
         rdf:about=""><dc:format>image/svg+xml</dc:format><dc:type
           rdf:resource="http://purl.org/dc/dcmitype/StillImage" /></cc:Work></rdf:RDF></metadata><defs
     id="defs6" /><sodipodi:namedview
     pagecolor="#ffffff"
     bordercolor="#666666"
     borderopacity="1"
     objecttolerance="10"
     gridtolerance="10"
     guidetolerance="10"
     inkscape:pageopacity="0"
     inkscape:pageshadow="2"
     inkscape:window-width="640"
     inkscape:window-height="480"
     id="namedview4" /><g
     id="g10"
     inkscape:groupmode="layer"
     inkscape:label="ink_ext_XXXXXX"
     transform="matrix(1.3333333,0,0,-1.3333333,0,86.933333)"><g
       id="g12"
       transform="scale(0.1)"><path
         d="M 1371.88,651.973 H 722.832 V 0 h 651.958 v 651.973 z m -722.833,0 H 0 V 0 h 651.969 v 651.973 h -2.922"
         style="fill:#00904b;fill-opacity:1;fill-rule:nonzero;stroke:none"
         id="path14" /><path
         d="m 1143.04,50.1758 -20,35.5351 V 50.1758 h -8.76 v 47.664 h 11.64 l 20,-35.5468 v 35.5468 h 8.76 v -47.664 z m -77.02,0 v 47.664 h 32.1 v -6.9531 h -23.2 V 78.3594 h 21.37 v -6.8086 h -21.37 V 57.2539 h 24.1 v -7.0781 z m -27.74,0 v 21.582 h -21.35 v -21.582 h -8.9 v 47.664 h 8.9 V 78.2891 h 21.35 v 19.5507 h 8.91 v -47.664 z m -61.268,-0.957 c -15.469,0 -22.735,11.9804 -22.735,25.125 0,12.871 8.828,24.4414 22.735,24.4414 6.855,0 12.187,-2.2422 15.82,-6.0508 l -3.496,-6.6133 c -2.676,2.9961 -5.332,6.1328 -12.188,6.1328 -8.085,0 -13.554,-7.832 -13.554,-17.9101 0,-9.8711 5.879,-18.5938 13.633,-18.5938 5.683,0 9.433,1.9141 13.476,6.1992 l 3.418,-6.8047 c -5.547,-4.2265 -9.57,-5.9257 -17.109,-5.9257 z m -50.586,0.957 -20,35.5351 V 50.1758 h -8.77 v 47.664 h 11.641 l 20,-35.5468 v 35.5468 h 8.75 v -47.664 z m -60.664,52.0192 c -2.539,0 -4.668,2.176 -4.668,4.563 0,2.383 2.07,4.558 4.668,4.558 2.597,0 4.726,-2.175 4.726,-4.558 0,-2.387 -2.207,-4.563 -4.726,-4.563 z m -13.223,0 c -2.519,0 -4.648,2.176 -4.648,4.563 0,2.383 2.05,4.558 4.648,4.558 2.598,0 4.727,-2.175 4.727,-4.558 0,-2.387 -2.188,-4.563 -4.727,-4.563 z m 7.266,-52.9762 c -10.274,0 -19.922,3.6718 -19.922,20.0156 v 28.6054 h 8.887 V 68.418 c 0,-7.5586 3.632,-12.668 11.035,-12.668 7.246,0 10.82,4.7656 10.82,12.668 v 29.4218 h 8.887 V 69.2344 c 0,-15.1836 -9.844,-20.0156 -19.707,-20.0156 z m -45.801,0.957 -1.641,36.2187 -12.129,-29.6875 h -8.086 L 779.766,86.3945 778.32,50.1758 h -8.691 l 2.812,47.664 h 11.094 l 13.067,-31.6015 12.402,31.6015 h 11.094 l 2.793,-47.664 z M 1265.91,178.309 v -40.586 h -8.89 v 40.586 h -16.09 v 7.082 H 1282 v -7.082 z m -49.36,11.433 c -2.54,0 -4.65,2.18 -4.65,4.563 0,2.39 2.05,4.57 4.65,4.57 2.6,0 4.65,-2.18 4.65,-4.57 0,-2.383 -2.11,-4.563 -4.65,-4.563 z m -6.72,-13.211 -7.46,-20.832 h 15.06 z m -6.5,13.211 c -2.52,0 -4.65,2.18 -4.65,4.563 0,2.39 2.05,4.57 4.65,4.57 2.62,0 4.67,-2.18 4.67,-4.57 0,-2.383 -2.13,-4.563 -4.67,-4.563 z m 20.62,-52.019 -4.17,11.574 h -19.59 l -4.23,-11.574 h -9.38 l 19.02,47.668 h 9.31 l 18.89,-47.668 z m -60.6,40.586 v -40.586 h -8.89 v 40.586 h -16.09 v 7.082 h 41.08 v -7.082 z m -47.16,-40.586 v 47.668 h 8.9 v -47.668 z m -34.3,-0.957 c -9.45,0 -14.86,4.367 -17.12,7.011 l 3.77,5.996 c 3.43,-3.875 7.4,-6.601 13.49,-6.601 6.02,0 8.83,3.398 8.83,6.465 0,3.75 -2.81,5.515 -6.5,7.082 l -9.46,4.019 c -5.13,2.18 -9.1,6.059 -9.1,11.914 0,9.192 9.1,13.696 16.78,13.696 6.37,0 12.37,-2.383 15.82,-6.477 l -3.78,-5.918 c -2.73,3.328 -6.08,5.988 -12.04,5.988 -5.28,0 -7.68,-3.07 -7.68,-5.793 0,-3.398 3.09,-5.039 6.04,-6.257 l 9.43,-4.028 c 5.41,-2.312 9.81,-5.711 9.81,-12.925 0,-4.907 -3.91,-14.172 -18.29,-14.172 z m -48.2,41.886 h -7.67 V 164.82 h 7.67 c 6.86,0 8.56,3.34 8.56,7.289 0,3.614 -2.82,6.543 -8.56,6.543 z m 11.02,-40.929 -9.65,14.367 c -2.46,3.68 -4.59,6.199 -6.84,6.199 h -2.2 v -20.566 h -8.89 v 47.668 h 18.28 c 8.42,0 16.02,-4.426 16.02,-13.282 0,-8.988 -8.09,-12.328 -12.19,-12.804 1.37,-0.879 3.14,-3.196 3.77,-4.082 l 12.32,-17.5 z m -75.862,0 v 47.668 h 32.112 v -6.946 h -23.206 v -12.531 h 21.367 v -6.812 h -21.367 v -14.297 h 24.106 v -7.082 z m -32.246,0 h -9.434 l -19.043,47.668 h 10.059 l 13.906,-38.684 13.906,38.684 h 9.649 z m -49.219,0 v 47.668 h 8.906 v -47.668 z m -30.723,0 -20,35.547 v -35.547 h -8.769 v 47.668 h 11.64 l 20,-35.547 v 35.547 h 8.75 v -47.668 z m -66.621,-0.957 c -10.273,0 -19.922,3.679 -19.922,20.019 v 28.606 h 8.887 v -29.414 c 0,-7.563 3.633,-12.668 11.035,-12.668 7.246,0 10.82,4.765 10.82,12.668 v 29.414 h 8.887 v -28.606 c 0,-15.183 -9.844,-20.019 -19.707,-20.019 z M 1308.51,243.66 v 5.93 h 18.69 v -5.93 z m -29.71,-19.336 c -9.45,0 -14.86,4.356 -17.11,7.012 l 3.75,5.984 c 3.44,-3.875 7.4,-6.597 13.5,-6.597 6.01,0 8.82,3.406 8.82,6.465 0,3.75 -2.81,5.515 -6.5,7.089 l -9.45,4.012 c -5.14,2.18 -9.11,6.066 -9.11,11.914 0,9.199 9.11,13.692 16.78,13.692 6.37,0 12.39,-2.383 15.82,-6.473 l -3.77,-5.918 c -2.73,3.34 -6.09,5.984 -12.05,5.984 -5.27,0 -7.67,-3.054 -7.67,-5.781 0,-3.406 3.08,-5.039 6.03,-6.269 l 9.45,-4.012 c 5.41,-2.317 9.79,-5.727 9.79,-12.942 0,-4.902 -3.91,-14.16 -18.28,-14.16 z m -44.1,0.949 -19.98,35.547 v -35.547 h -8.77 v 47.665 h 11.64 l 20,-35.547 v 35.547 h 8.75 v -47.665 z m -65.65,38.817 -7.46,-20.84 h 15.07 z m 14.11,-38.817 -4.19,11.582 h -19.59 l -4.22,-11.582 h -9.38 l 19.01,47.665 h 9.33 l 18.9,-47.665 z m -59.5,0 v 47.665 h 8.89 v -47.665 z m -47.72,0 v 47.665 h 8.9 v -40.586 h 23.7 v -7.079 z m -27.99,0 v 47.665 h 8.89 v -47.665 z m -26.84,0 -1.66,36.231 -12.11,-29.688 h -8.082 l -12.383,29.688 -1.445,-36.231 h -8.692 l 2.813,47.665 h 11.094 l 13.065,-31.59 12.4,31.59 h 11.1 l 2.79,-47.665 z m -71.208,0 v 47.665 h 8.907 v -47.665 z m -24.238,0 -12.949,19.207 -13.203,-19.207 h -10.684 l 18.36,24.715 -16.915,22.95 h 11.153 l 11.777,-17.704 11.504,17.704 h 10.684 l -16.856,-22.95 18.281,-24.715 z m -67.715,38.817 -7.461,-20.84 h 15.059 z m 14.102,-38.817 -4.18,11.582 h -19.57 l -4.238,-11.582 h -9.395 l 19.043,47.665 h 9.316 l 18.887,-47.665 z m -58.047,0 -1.641,36.231 -12.129,-29.688 h -8.086 l -12.382,29.688 -1.446,-36.231 h -8.691 l 2.812,47.665 h 11.094 l 13.067,-31.59 12.402,31.59 h 11.094 l 2.793,-47.665 z m 266.916,105.938 v 5.926 h 18.69 v -5.926 z m -30.06,-19.34 c -14.51,0 -23.2,9.945 -23.2,25.199 0,16.485 12.11,24.375 23.2,24.375 7.81,0 12.87,-2.453 16.09,-5.312 l -3.63,-6.672 c -2.6,2.93 -6.15,5.586 -12.46,5.586 -8.01,0 -13.97,-7.156 -13.97,-17.977 0,-11.093 5.96,-18.793 14.38,-18.793 4.86,0 7.68,1.223 8.83,2.309 v 12.129 h -10.69 v 6.531 h 19.26 v -22.883 c -4.12,-2.515 -9.67,-4.492 -17.81,-4.492 z m -48.61,0.957 v 47.656 h 8.9 v -47.656 z m -27.934,0 h -9.453 l -9.238,33.442 -9.238,-33.442 h -9.453 l -14.512,47.656 h 9.922 l 9.726,-37.3 9.18,33.425 h 9.434 l 9.121,-33.425 9.648,37.3 h 9.317 z m -86.66,40.918 h -5.058 v -34.109 h 5.058 c 10.137,0 15.684,4.492 15.684,17.363 0,11.16 -5.352,16.746 -15.684,16.746 z m 0.41,-40.918 h -14.375 v 47.656 h 14.375 c 16.973,0 24.571,-9.8 24.571,-23.484 0,-15.664 -9.16,-24.172 -24.571,-24.172 z m -52.246,-0.957 c -10.254,0 -19.922,3.676 -19.922,20.024 v 28.589 h 8.907 V 331.07 c 0,-7.554 3.633,-12.656 11.015,-12.656 7.266,0 10.821,4.77 10.821,12.656 v 29.414 h 8.906 v -28.589 c 0,-15.188 -9.863,-20.024 -19.727,-20.024 z m -65.019,0.957 v 47.656 h 8.887 v -40.582 h 23.691 v -7.074 z M 394.293,135.527 v 138.868 h 76.961 V 127.891 c 0,-10.395 2.394,-17.793 7.16,-22.207 4.785,-4.414 11.16,-6.6215 19.16,-6.6215 8.008,0 14.453,2.2075 19.336,6.6215 4.883,4.414 7.344,11.812 7.344,22.207 v 146.504 h 76.621 V 135.527 c 0,-16.582 -2.5,-30.668 -7.5,-42.2653 C 588.383,81.6563 581.383,72.2266 572.387,64.9219 563.395,57.6133 552.516,52.3203 539.742,49.0234 526.957,45.6992 512.906,44.043 497.574,44.043 c -15.109,0 -28.984,1.6562 -41.64,4.9804 -12.668,3.2969 -23.567,8.5899 -32.668,15.8985 -9.11,7.3047 -16.219,16.7344 -21.328,28.3398 -5.106,11.5973 -7.645,25.6833 -7.645,42.2653 z M 258.336,100.723 c 0,-1.5433 0.762,-2.3246 2.316,-2.3246 1.102,0 1.672,0.7813 1.672,2.3246 1.992,14.59 4.551,30.547 7.653,47.886 3.125,17.344 6.211,34.258 9.324,50.727 3.121,16.441 6.121,31.426 8.996,44.883 2.891,13.496 5.121,23.535 6.68,30.176 h 71.972 V 49.9961 H 323.648 V 238.926 c 0,1.109 -0.8,1.66 -2.355,1.66 -0.871,0 -1.328,-0.551 -1.328,-1.66 -1.777,-8.828 -3.66,-18.731 -5.664,-29.668 -2,-10.938 -4.453,-23.75 -7.332,-38.438 -2.887,-14.711 -6.383,-31.875 -10.489,-51.543 -4.101,-19.6676 -8.941,-42.7536 -14.503,-69.2809 h -44.985 c -5.558,26.0742 -10.277,48.6133 -14.172,67.6409 -3.894,18.98 -7.273,35.664 -10.164,50.039 -2.883,14.351 -5.429,27.168 -7.656,38.433 -2.219,11.274 -4.434,22.211 -6.672,32.817 0,1.109 -0.769,1.66 -2.332,1.66 -0.879,0 -1.328,-0.551 -1.328,-1.66 V 49.9961 H 155.02 V 274.395 h 72.304 c 1.114,-4.868 2.449,-11.157 4.004,-18.911 1.543,-7.73 3.281,-16.382 5.156,-26.011 1.895,-9.59 3.829,-19.883 5.84,-30.801 1.992,-10.957 3.992,-22.109 5.996,-33.496 2.012,-11.367 3.828,-22.539 5.508,-33.481 1.66,-10.933 3.164,-21.25 4.508,-30.972 z M 46.3867,274.395 H 68.3672 V 66.5781 H 132.363 V 49.9961 H 46.3867 V 274.395"
         style="fill:#ffffff;fill-opacity:1;fill-rule:nonzero;stroke:none"
         id="path16" /></g></g></svg>
