<?xml version="1.0" encoding="utf-8"?>
<!-- Generator: Adobe Illustrator 15.0.2, SVG Export Plug-In . SVG Version: 6.00 Build 0)  -->
<!DOCTYPE svg PUBLIC "-//W3C//DTD SVG 1.1//EN" "http://www.w3.org/Graphics/SVG/1.1/DTD/svg11.dtd">
<svg version="1.1" id="Ebene_1" xmlns="http://www.w3.org/2000/svg" xmlns:xlink="http://www.w3.org/1999/xlink" x="0px" y="0px"
	 width="606px" height="561px" viewBox="112.445 13.14 606 561" enable-background="new 112.445 13.14 606 561"
	 xml:space="preserve">
<g id="Kreise">
	<g>
		<path fill="#CCCCCC" stroke="#CCCCCC" stroke-miterlimit="10" d="M367.204,475.187c-60.297,0-116.984-23.479-159.615-66.117
			c-42.639-42.64-66.118-99.327-66.118-159.624c0-60.296,23.479-116.984,66.118-159.614c42.639-42.64,99.326-66.118,159.615-66.118
			c60.296,0,116.984,23.479,159.623,66.118c42.639,42.639,66.118,99.326,66.118,159.614c0,60.297-23.479,116.984-66.118,159.624
			C484.189,451.701,427.5,475.187,367.204,475.187z M367.204,24.925c-59.974,0-116.354,23.358-158.76,65.763
			c-42.404,42.404-65.763,98.794-65.763,158.759c0,59.975,23.358,116.355,65.763,158.76c42.405,42.404,98.794,65.763,158.76,65.763
			c59.974,0,116.354-23.358,158.759-65.763s65.763-98.794,65.763-158.76c0-59.974-23.358-116.354-65.763-158.759
			C483.559,48.274,427.178,24.925,367.204,24.925z"/>
	</g>
	<g>
		<path fill="#CCCCCC" stroke="#CCCCCC" stroke-miterlimit="10" d="M462.477,524.706c-60.296,0-116.983-23.479-159.614-66.118
			c-42.639-42.639-66.118-99.326-66.118-159.623s23.479-116.984,66.118-159.615c42.631-42.639,99.318-66.118,159.614-66.118
			c60.297,0,116.984,23.479,159.623,66.118c42.64,42.639,66.118,99.326,66.118,159.615c0,60.297-23.479,116.984-66.118,159.623
			C579.461,501.226,522.774,524.706,462.477,524.706z M462.477,74.442c-59.973,0-116.354,23.358-158.759,65.763
			c-42.404,42.405-65.763,98.794-65.763,158.76c0,59.974,23.358,116.354,65.763,158.759c42.405,42.405,98.794,65.763,158.759,65.763
			c59.975,0,116.355-23.357,158.76-65.763c42.404-42.404,65.763-98.793,65.763-158.759c0-59.974-23.358-116.354-65.763-158.76
			C578.832,97.801,522.451,74.442,462.477,74.442z"/>
	</g>
	<path fill="#CCCCCC" stroke="#CCCCCC" stroke-miterlimit="10" d="M539.431,215.552v2.31c21.444,34.92,32.917,75.161,32.917,117.17
		c0,59.974-23.357,116.354-65.763,158.759c-42.404,42.405-98.793,65.763-158.759,65.763s-116.354-23.357-158.759-65.763
		c-42.405-42.404-65.763-98.793-65.763-158.759c0-59.974,23.357-116.354,65.763-158.76c42.404-42.404,98.793-65.763,158.759-65.763
		c55.219,0,107.376,19.813,148.4,56.05h1.824c-41.403-37.011-94.256-57.261-150.232-57.261c-60.297,0-116.984,23.479-159.615,66.118
		c-42.631,42.631-66.109,99.318-66.109,159.615s23.479,116.984,66.117,159.623c42.64,42.639,99.327,66.118,159.615,66.118
		c60.297,0,116.984-23.479,159.623-66.118s66.118-99.326,66.118-159.623C573.56,292.118,561.658,251.045,539.431,215.552z"/>
	<path fill="#CCCCCC" stroke="#CCCCCC" stroke-miterlimit="10" d="M643.625,157.112c-42.639-42.639-99.326-66.118-159.623-66.118
		c-60.296,0-116.983,23.479-159.614,66.118c-3.076,3.076-6.031,6.225-8.906,9.438h1.615c2.632-2.923,5.345-5.789,8.146-8.583
		c42.405-42.404,98.794-65.763,158.759-65.763c59.974,0,116.354,23.358,158.76,65.763c42.404,42.405,65.763,98.794,65.763,158.76
		c0,59.974-23.358,116.354-65.763,158.759c-42.405,42.405-98.794,65.764-158.76,65.764c-59.974,0-116.354-23.358-158.759-65.764
		c-42.404-42.404-65.763-98.793-65.763-158.759c0-53.062,18.296-103.299,51.876-143.548v-1.881
		c-34.355,40.645-53.087,91.6-53.087,145.429c0,60.297,23.479,116.984,66.118,159.623s99.326,66.118,159.614,66.118
		c60.289,0,116.984-23.479,159.623-66.118c42.64-42.639,66.118-99.326,66.118-159.623
		C709.743,256.438,686.265,199.751,643.625,157.112z"/>
</g>
<g id="Ebene_6">
	<g id="MTK_Rechteck">
		<rect x="311.357" y="166.558" fill="#790000" width="228.228" height="227.954"/>
	</g>
	<g id="MTK_Schrift">
		<polygon fill="#FF0033" points="372.92,252.191 366.768,252.191 353.697,284.843 339.615,252.143 338.913,252.143 
			333.414,252.143 333.414,298.617 338.913,298.617 338.913,264.666 350.37,291.706 356.474,291.706 367.422,264.278 
			367.422,298.715 372.92,298.715 372.92,252.24 372.905,252.24 		"/>
		<polygon fill="#FFFFFF" points="372.114,320.417 334.723,320.417 334.723,325.358 350.37,325.358 350.37,366.939 356.627,366.939 
			356.627,325.358 372.114,325.358 		"/>
		<polygon fill="#FFFFFF" points="421.421,366.939 399.444,342.298 418.538,320.417 411.377,320.369 392.153,342.386 
			392.153,320.312 385.896,320.312 385.896,366.996 392.153,366.996 392.153,342.863 413.598,366.939 		"/>
	</g>
	<g id="MTK_Kreis">
		<path fill="#FF0033" d="M420.364,191.313c-37.479,0-69.872,20.314-85.237,49.793h7.396c14.896-25.765,44.197-43.333,77.842-43.333
			c48.678,0,88.272,36.761,88.272,81.951c0,39.449-30.188,72.48-70.243,80.231v6.572c43.696-7.856,76.703-43.729,76.703-86.804
			C515.096,230.9,472.683,191.313,420.364,191.313z"/>
	</g>
</g>
</svg>
